<?xml version="1.0" encoding="UTF-8" standalone="no"?>
<svg
   xmlns:dc="http://purl.org/dc/elements/1.1/"
   xmlns:cc="http://creativecommons.org/ns#"
   xmlns:rdf="http://www.w3.org/1999/02/22-rdf-syntax-ns#"
   xmlns:svg="http://www.w3.org/2000/svg"
   xmlns="http://www.w3.org/2000/svg"
   xmlns:sodipodi="http://sodipodi.sourceforge.net/DTD/sodipodi-0.dtd"
   xmlns:inkscape="http://www.inkscape.org/namespaces/inkscape"
   version="1.1"
   id="svg2"
   viewBox="0 0 107.47597 45.718646"
   height="12.902818mm"
   width="30.332108mm"
   inkscape:version="0.91 r13725"
   sodipodi:docname="logo-small.svg">
  <sodipodi:namedview
     pagecolor="#ffffff"
     bordercolor="#666666"
     borderopacity="1"
     objecttolerance="10"
     gridtolerance="10"
     guidetolerance="10"
     inkscape:pageopacity="0"
     inkscape:pageshadow="2"
     inkscape:window-width="1920"
     inkscape:window-height="1027"
     id="namedview4144"
     showgrid="false"
     fit-margin-top="0"
     fit-margin-left="0"
     fit-margin-right="0"
     fit-margin-bottom="0"
     inkscape:zoom="5.831536"
     inkscape:cx="-10.413361"
     inkscape:cy="45.052974"
     inkscape:window-x="-8"
     inkscape:window-y="-8"
     inkscape:window-maximized="1"
     inkscape:current-layer="svg2" />
  <defs
     id="defs4" />
  <metadata
     id="metadata7">
    <rdf:RDF>
      <cc:Work
         rdf:about="">
        <dc:format>image/svg+xml</dc:format>
        <dc:type
           rdf:resource="http://purl.org/dc/dcmitype/StillImage" />
        <dc:title></dc:title>
      </cc:Work>
    </rdf:RDF>
  </metadata>
  <g
     transform="matrix(1.7183002,0,0,1.7183002,-332.57274,-636.39385)"
     id="layer1">
    <g
       transform="translate(-83.370463,155.47963)"
       id="g4143">
      <g
         id="layer1-4">
        <path
           style="fill:#FFFFFF"
           d="m 320.95406,214.88281 c -0.14172,0 -1.69911,1.06647 -3.4607,2.36994 -1.7616,1.30346 -3.28259,2.36994 -3.3801,2.36994 -0.0975,0 -1.55543,-1.01256 -3.24015,-2.25014 -1.68472,-1.23757 -3.23638,-2.31643 -3.44818,-2.39771 -0.21183,-0.0813 -1.72684,0.83695 -3.36757,2.04102 -1.64042,1.20384 -3.1451,2.28707 -3.34362,2.40752 -0.23431,0.14215 -1.44389,-0.57152 -3.44708,-2.03449 -1.69722,-1.23952 -3.25864,-2.31989 -3.46996,-2.40098 -0.21787,-0.0836 -3.27471,1.96975 -7.0608,4.7426 l -6.67689,4.88963 -0.19114,1.93865 c -0.10507,1.06625 -0.16859,4.46378 -0.14104,7.54982 0.0275,3.08603 0.003,5.64621 -0.055,5.68959 -0.0579,0.0434 -0.70107,0.42041 -1.42947,0.83754 -0.72841,0.41713 -1.32438,0.79943 -1.32438,0.85006 0,0.0506 1.28604,-0.39566 2.85787,-0.99219 5.21971,-1.98095 11.51077,-3.55321 17.91394,-4.47685 3.99721,-0.57659 18.40664,-0.47797 22.44471,0.15356 6.44125,1.00738 12.54769,2.57754 17.42602,4.48121 2.77538,1.08304 2.51665,0.72961 -0.76294,-1.04284 l -2.15701,-1.16591 -0.004,-6.88 -0.004,-6.88001 -6.71065,-4.89998 c -3.69078,-2.69497 -6.82653,-4.89998 -6.96823,-4.89998 z m 0.0261,5.4941 0.92412,0.66872 c 0.50813,0.36768 2.56967,1.86012 4.58142,3.31693 l 3.65782,2.64876 0.0142,4.80958 c 0.008,2.64527 -0.0172,4.79777 -0.0555,4.78344 -1.30597,-0.48806 -5.60755,-1.75055 -7.10981,-2.08676 l -2.02142,-0.45254 0,-4.6522 0,-4.6522 -1.4126,-1.05482 c -1.57652,-1.17698 -1.56664,-1.25798 0.30823,-2.55727 l 1.11363,-0.77164 z m -27.36211,0.0136 1.40824,1.03413 c 0.77465,0.56864 1.40878,1.06376 1.40878,1.10056 0,0.0368 -0.68741,0.55968 -1.5275,1.16155 l -1.52749,1.09403 -0.006,4.9076 -0.006,4.9076 -1.88201,0.49937 c -1.03511,0.27444 -2.82302,0.84344 -3.97313,1.26447 -1.15012,0.42104 -2.31069,0.85563 -2.57905,0.96606 -0.45465,0.18708 -0.48756,-0.15776 -0.48249,-5.05682 l 0.005,-5.25775 3.6611,-2.64876 c 2.0137,-1.45681 4.07522,-2.94649 4.58086,-3.31039 l 0.91922,-0.66165 z m 13.54056,0.14758 5.6e-4,0 c 0.16153,-0.0316 2.29815,1.42311 4.75022,3.23416 l 4.46106,3.2946 0.079,3.14594 0.0795,3.14595 -1.93865,-0.19115 c -2.81496,-0.27738 -10.66149,-0.21142 -13.41531,0.11273 -1.30346,0.15343 -2.52677,0.27988 -2.71845,0.28099 -0.25921,0.002 -0.34855,-0.83736 -0.34798,-3.27391 l 0.002,-3.27609 4.37992,-3.20639 c 2.4081,-1.76287 4.50801,-3.23239 4.66854,-3.26683 z"
           id="path4152"
           inkscape:connector-curvature="0" />
      </g>
      <g
         id="layer2" />
    </g>
  </g>
</svg>
