<?xml version="1.0" encoding="UTF-8" standalone="no"?>
<svg
   xmlns:dc="http://purl.org/dc/elements/1.1/"
   xmlns:cc="http://creativecommons.org/ns#"
   xmlns:rdf="http://www.w3.org/1999/02/22-rdf-syntax-ns#"
   xmlns:svg="http://www.w3.org/2000/svg"
   xmlns="http://www.w3.org/2000/svg"
   xmlns:sodipodi="http://sodipodi.sourceforge.net/DTD/sodipodi-0.dtd"
   xmlns:inkscape="http://www.inkscape.org/namespaces/inkscape"
   version="1.1"
   id="svg2"
   viewBox="0 0 224.33356 95.428107"
   height="26.931932mm"
   width="63.311916mm"
   inkscape:version="0.91 r13725"
   sodipodi:docname="CLICLogo.svg">
  <sodipodi:namedview
     pagecolor="#ffffff"
     bordercolor="#666666"
     borderopacity="1"
     objecttolerance="10"
     gridtolerance="10"
     guidetolerance="10"
     inkscape:pageopacity="0"
     inkscape:pageshadow="2"
     inkscape:window-width="1920"
     inkscape:window-height="1027"
     id="namedview8"
     showgrid="false"
     inkscape:zoom="1.7940591"
     inkscape:cx="30.875852"
     inkscape:cy="120.8726"
     inkscape:window-x="-8"
     inkscape:window-y="-8"
     inkscape:window-maximized="1"
     inkscape:current-layer="svg2"
     fit-margin-top="0"
     fit-margin-left="0"
     fit-margin-right="0"
     fit-margin-bottom="0" />
  <defs
     id="defs4" />
  <metadata
     id="metadata7">
    <rdf:RDF>
      <cc:Work
         rdf:about="">
        <dc:format>image/svg+xml</dc:format>
        <dc:type
           rdf:resource="http://purl.org/dc/dcmitype/StillImage" />
        <dc:title></dc:title>
      </cc:Work>
    </rdf:RDF>
  </metadata>
  <g
     id="layer1"
     transform="translate(-276.91797,-214.88281)">
    <path
       id="path4152"
       d="m 434.85742,214.88281 c -0.50827,0 -6.09399,3.825 -12.41211,8.5 -6.31813,4.675 -11.77329,8.5 -12.12304,8.5 -0.34976,0 -5.57869,-3.63162 -11.6211,-8.07031 -6.04239,-4.43868 -11.60756,-8.30811 -12.36719,-8.59961 -0.75977,-0.29155 -6.19347,3.00179 -12.07812,7.32031 -5.8835,4.31768 -11.28019,8.20279 -11.99219,8.63477 -0.84037,0.50985 -5.17865,-2.04979 -12.36328,-7.29688 -6.08722,-4.44563 -11.6874,-8.32048 -12.44531,-8.61132 -0.78142,-0.29986 -11.74504,7.06468 -25.32422,17.00976 l -23.94727,17.53711 -0.68554,6.95313 c -0.37683,3.82421 -0.60466,16.00977 -0.50586,27.07812 0.0988,11.06835 0.0104,20.25065 -0.19727,20.40625 -0.20766,0.1556 -2.51445,1.50784 -5.12695,3.00391 -2.6125,1.49606 -4.75,2.86723 -4.75,3.04883 0,0.18155 4.6125,-1.41909 10.25,-3.5586 18.72099,-7.10486 41.28443,-12.74391 64.25,-16.05664 14.33635,-2.06799 66.01708,-1.71427 80.5,0.55078 23.10212,3.61305 45.00345,9.24457 62.5,16.07227 9.95416,3.88442 9.02621,2.61681 -2.73633,-3.74024 l -7.73633,-4.18164 -0.0137,-24.67578 -0.0137,-24.67578 -24.06836,-17.57422 c -13.2373,-9.66574 -24.48396,-17.57422 -24.99219,-17.57422 z m 0.0937,19.70508 3.31445,2.39844 c 1.82243,1.31873 9.21634,6.67148 16.43165,11.89648 l 13.11914,9.5 0.0508,17.25 c 0.028,9.4875 -0.0617,17.20765 -0.19922,17.15625 -4.684,-1.75047 -20.11199,-6.27852 -25.5,-7.48437 l -7.25,-1.62305 0,-16.68555 0,-16.68554 -5.06641,-3.78321 c -5.65434,-4.22136 -5.6189,-4.51187 1.10547,-9.17187 z m -98.13672,0.0488 5.05078,3.70898 c 2.77837,2.0395 5.05274,3.81528 5.05274,3.94727 0,0.13198 -2.46546,2.00734 -5.47852,4.16601 l -5.47851,3.92383 -0.0215,17.60157 -0.0215,17.60156 -6.75,1.79101 c -3.7125,0.98433 -10.125,3.02508 -14.25,4.53516 -4.125,1.51008 -8.2875,3.06878 -9.25,3.46484 -1.63063,0.671 -1.74867,-0.5658 -1.73047,-18.13672 l 0.0195,-18.85742 13.13086,-9.5 c 7.22234,-5.225 14.61615,-10.56788 16.42969,-11.87304 z m 48.56446,0.5293 0.002,0 c 0.57934,-0.11318 8.24255,5.10412 17.03711,11.5996 l 16,11.81641 0.2832,11.2832 0.28516,11.28321 -6.95313,-0.68555 c -10.09613,-0.99485 -38.23841,-0.7583 -48.11523,0.4043 -4.675,0.5503 -10.04784,1.00381 -10.73534,1.00781 -0.92967,0.006 -0.26475,-3.00329 -0.26271,-11.74219 l 0.006,-11.75 15.70899,-11.5 c 8.63686,-6.32271 16.16837,-11.59328 16.74414,-11.71679 z"
       style="fill:#FFFFFF"
       inkscape:connector-curvature="0"
       sodipodi:nodetypes="sssssscsscccssssssssccccssccccsccccccccccscccccssscccccccccccscccsc" />
  </g>
  <g
     id="layer2"
     transform="translate(-276.91797,-214.88281)" />
</svg>
